<?xml version="1.0" encoding="utf-8"?>
<!-- Generator: Adobe Illustrator 25.0.0, SVG Export Plug-In . SVG Version: 6.00 Build 0)  -->
<svg version="1.1" id="圖層_1" xmlns="http://www.w3.org/2000/svg" xmlns:xlink="http://www.w3.org/1999/xlink" x="0px" y="0px"
	 viewBox="0 0 48 48" style="enable-background:new 0 0 48 48;" xml:space="preserve">
<style type="text/css">
	.st0{fill:#541052;}
	.st1{fill:#FFFFFF;}
</style>
<rect x="9.1" y="9.4" class="st0" width="30.6" height="30.6"/>
<path class="st0" d="M9.5,42.5c-0.8,0-1.5-0.3-2.1-0.9c-0.6-0.6-0.9-1.3-0.9-2.1v-30c0-0.8,0.3-1.5,0.9-2.1s1.3-0.9,2.1-0.9h30
	c0.8,0,1.5,0.3,2.1,0.9c0.6,0.6,0.9,1.3,0.9,2.1v30c0,0.8-0.3,1.5-0.9,2.1c-0.6,0.6-1.3,0.9-2.1,0.9H9.5z M10,39h29V10H10V39z"/>
<path class="st1" d="M19.9,33.1l-6-6c-0.6-0.6-0.6-1.6,0-2.3l0.2-0.2c0.6-0.7,1.7-0.7,2.3,0l5.1,5l12.6-12.5c0.7-0.6,1.7-0.6,2.3,0
	v0c0.6,0.6,0.6,1.6,0,2.3L22.7,33.1C21.9,33.9,20.6,33.9,19.9,33.1z"/>
</svg>
